<svg width="22" height="22" viewBox="0 0 22 22" fill="none" xmlns="http://www.w3.org/2000/svg">
  <path d="M14.3994 11.4578L15.7464 19.0384C15.7615 19.1277 15.749 19.2194 15.7105 19.3014C15.6721 19.3833 15.6095 19.4516 15.5312 19.497C15.4529 19.5425 15.3626 19.5629 15.2723 19.5556C15.1821 19.5484 15.0962 19.5137 15.0262 19.4563L11.8432 17.0672C11.6895 16.9524 11.5028 16.8904 11.311 16.8904C11.1192 16.8904 10.9325 16.9524 10.7789 17.0672L7.59049 19.4554C7.52054 19.5127 7.43477 19.5473 7.34465 19.5546C7.25452 19.5619 7.16431 19.5415 7.08606 19.4962C7.00781 19.4509 6.94523 19.3828 6.90668 19.301C6.86813 19.2192 6.85544 19.1276 6.8703 19.0384L8.21643 11.4578" stroke="#363D49" stroke-width="1.77778" stroke-linecap="round" stroke-linejoin="round" />
  <path d="M11.3093 12.4478C14.2556 12.4478 16.6441 10.0594 16.6441 7.11306C16.6441 4.16676 14.2556 1.77832 11.3093 1.77832C8.36305 1.77832 5.97461 4.16676 5.97461 7.11306C5.97461 10.0594 8.36305 12.4478 11.3093 12.4478Z" stroke="#363D49" stroke-width="1.77778" stroke-linecap="round" stroke-linejoin="round" />
</svg>