<svg width="23" height="22" viewBox="0 0 23 22" fill="none" xmlns="http://www.w3.org/2000/svg">
  <path d="M4.54329 12.4446C4.37508 12.4452 4.21016 12.398 4.06769 12.3086C3.92522 12.2192 3.81105 12.0912 3.73844 11.9394C3.66583 11.7877 3.63777 11.6185 3.65751 11.4514C3.67725 11.2844 3.74398 11.1264 3.84995 10.9957L12.65 1.92906C12.716 1.85287 12.8059 1.80138 12.905 1.78305C13.0042 1.76471 13.1066 1.78063 13.1955 1.82818C13.2844 1.87572 13.3545 1.95208 13.3943 2.04471C13.434 2.13734 13.4411 2.24075 13.4144 2.33795L11.7077 7.68906C11.6574 7.82375 11.6405 7.96863 11.6585 8.11129C11.6765 8.25394 11.7288 8.39011 11.8109 8.50811C11.8931 8.6261 12.0026 8.72241 12.1302 8.78876C12.2578 8.85511 12.3995 8.88953 12.5433 8.88906H18.7655C18.9337 8.88849 19.0986 8.93565 19.2411 9.02508C19.3836 9.11451 19.4977 9.24252 19.5704 9.39425C19.643 9.54599 19.671 9.71521 19.6513 9.88225C19.6315 10.0493 19.5648 10.2073 19.4588 10.338L10.6588 19.4046C10.5928 19.4808 10.5029 19.5323 10.4037 19.5506C10.3046 19.569 10.2022 19.553 10.1133 19.5055C10.0244 19.458 9.95432 19.3816 9.91454 19.289C9.87477 19.1963 9.86766 19.0929 9.8944 18.9957L11.6011 13.6446C11.6514 13.5099 11.6683 13.365 11.6503 13.2224C11.6323 13.0797 11.58 12.9436 11.4979 12.8256C11.4157 12.7076 11.3062 12.6113 11.1786 12.5449C11.051 12.4786 10.9093 12.4441 10.7655 12.4446H4.54329Z" stroke="#363D49" stroke-width="1.77778" stroke-linecap="round" stroke-linejoin="round" />
</svg>