<svg width="22" height="22" viewBox="0 0 22 22" fill="none" xmlns="http://www.w3.org/2000/svg">
  <path d="M11.1194 19.5559C16.0286 19.5559 20.0082 15.5762 20.0082 10.667C20.0082 5.75777 16.0286 1.77808 11.1194 1.77808C6.21016 1.77808 2.23047 5.75777 2.23047 10.667C2.23047 15.5762 6.21016 19.5559 11.1194 19.5559Z" stroke="#363D49" stroke-width="1.77778" stroke-linecap="round" stroke-linejoin="round" />
  <path d="M11.1209 16.0027C14.0672 16.0027 16.4556 13.6143 16.4556 10.668C16.4556 7.72169 14.0672 5.33325 11.1209 5.33325C8.17458 5.33325 5.78613 7.72169 5.78613 10.668C5.78613 13.6143 8.17458 16.0027 11.1209 16.0027Z" stroke="#363D49" stroke-width="1.77778" stroke-linecap="round" stroke-linejoin="round" />
  <path d="M11.1225 12.4463C12.1048 12.4463 12.9012 11.65 12.9012 10.6676C12.9012 9.68527 12.1048 8.88892 11.1225 8.88892C10.1401 8.88892 9.34375 9.68527 9.34375 10.6676C9.34375 11.65 10.1401 12.4463 11.1225 12.4463Z" stroke="#363D49" stroke-width="1.77778" stroke-linecap="round" stroke-linejoin="round" />
</svg>