<svg width="50" height="50" viewBox="0 0 50 50" fill="none" xmlns="http://www.w3.org/2000/svg">
<rect opacity="0.15" x="0.82666" y="0.207031" width="49.0596" height="49.0596" rx="8" fill="#539EE6"/>
<path opacity="0.3" d="M38.6034 2.45962L37.1166 3.94635C36.5692 4.49375 36.5692 5.38125 37.1166 5.92865L38.6034 7.41538C39.1508 7.96278 40.0383 7.96278 40.5857 7.41538L42.0724 5.92865C42.6198 5.38125 42.6198 4.49375 42.0724 3.94635L40.5857 2.45962C40.0383 1.91222 39.1508 1.91222 38.6034 2.45962Z" fill="#539EE6"/>
<path opacity="0.3" d="M11.3288 43.661L10.3376 44.6521C9.92705 45.0627 9.92705 45.7283 10.3376 46.1389L11.3288 47.13C11.7393 47.5406 12.4049 47.5406 12.8155 47.13L13.8066 46.1389C14.2172 45.7283 14.2172 45.0627 13.8066 44.6521L12.8155 43.661C12.4049 43.2504 11.7393 43.2504 11.3288 43.661Z" fill="#539EE6"/>
<path d="M17.6442 12.6338H31.5317C35.9817 12.6338 37.0942 13.7463 37.0942 18.1838V26.0963C37.0942 30.5463 35.9817 31.6463 31.5442 31.6463H17.6442C13.2067 31.6588 12.0942 30.5463 12.0942 26.1088V18.1838C12.0942 13.7463 13.2067 12.6338 17.6442 12.6338Z" stroke="#539EE6" stroke-width="2" stroke-linecap="round" stroke-linejoin="round"/>
<path d="M24.5942 31.6592V37.6342" stroke="#539EE6" stroke-width="2" stroke-linecap="round" stroke-linejoin="round"/>
<path d="M12.0942 26.3838H37.0942" stroke="#539EE6" stroke-width="2" stroke-linecap="round" stroke-linejoin="round"/>
<path d="M18.9692 37.6338H30.2192" stroke="#539EE6" stroke-width="2" stroke-linecap="round" stroke-linejoin="round"/>
</svg>
