<svg width="23" height="22" viewBox="0 0 23 22" fill="none" xmlns="http://www.w3.org/2000/svg">
  <path d="M15.1987 18.6677V16.8895C15.1987 15.9463 14.824 15.0417 14.157 14.3747C13.4901 13.7077 12.5854 13.333 11.6422 13.333H6.30747C5.36423 13.333 4.45962 13.7077 3.79265 14.3747C3.12568 15.0417 2.75098 15.9463 2.75098 16.8895V18.6677" stroke="#363D49" stroke-width="1.77778" stroke-linecap="round" stroke-linejoin="round" />
  <path d="M8.97469 9.77994C10.939 9.77994 12.5314 8.18755 12.5314 6.22322C12.5314 4.2589 10.939 2.6665 8.97469 2.6665C7.01037 2.6665 5.41797 4.2589 5.41797 6.22322C5.41797 8.18755 7.01037 9.77994 8.97469 9.77994Z" stroke="#363D49" stroke-width="1.77778" stroke-linecap="round" stroke-linejoin="round" />
  <path d="M20.5298 18.6685V16.8901C20.5293 16.102 20.267 15.3365 19.7841 14.7137C19.3013 14.0908 18.6253 13.646 17.8623 13.449" stroke="#363D49" stroke-width="1.77778" stroke-linecap="round" stroke-linejoin="round" />
  <path d="M15.1963 2.78223C15.9614 2.97811 16.6395 3.42306 17.1237 4.04692C17.608 4.67077 17.8708 5.43806 17.8708 6.2278C17.8708 7.01754 17.608 7.78482 17.1237 8.40868C16.6395 9.03254 15.9614 9.47748 15.1963 9.67337" stroke="#363D49" stroke-width="1.77778" stroke-linecap="round" stroke-linejoin="round" />
</svg>