<svg width="217" height="32" viewBox="0 0 217 32" fill="none" xmlns="http://www.w3.org/2000/svg">
  <path d="M54.851 24.4289C53.2954 24.4289 51.9017 24.2147 50.6696 23.7864C49.4577 23.3377 48.4274 22.7055 47.5793 21.8897C46.7509 21.0738 46.1147 20.0948 45.6703 18.9527C45.2259 17.8106 45.0039 16.5359 45.0039 15.1286V14.4555C45.0039 13.0686 45.2259 11.8041 45.6703 10.662C46.1147 9.51981 46.761 8.54083 47.6095 7.72502C48.458 6.90918 49.4879 6.27693 50.6998 5.82824C51.9319 5.37952 53.3159 5.15519 54.851 5.15519V3.80908H58.4869V5.15519C60.0421 5.15519 61.4257 5.37952 62.6377 5.82824C63.8698 6.25655 64.9 6.87858 65.7284 7.69443C66.5765 8.51023 67.2228 9.48921 67.6672 10.6314C68.1116 11.7735 68.334 13.0482 68.334 14.4555V15.1286C68.334 16.5154 68.1116 17.78 67.6672 18.9221C67.2228 20.0642 66.5765 21.0432 65.7284 21.8591C64.8799 22.6749 63.8395 23.3071 62.6074 23.7558C61.3955 24.2045 60.022 24.4289 58.4869 24.4289V25.775H54.851V24.4289ZM64.5164 14.4555C64.5164 12.5587 64.0011 11.1004 62.9709 10.0807C61.941 9.04053 60.4462 8.52044 58.4869 8.52044V21.0636C60.4664 21.0636 61.9612 20.5537 62.9709 19.534C64.0011 18.5142 64.5164 17.0457 64.5164 15.1286V14.4555ZM48.8215 15.1286C48.8215 17.0253 49.3364 18.4938 50.3666 19.534C51.3969 20.5537 52.8917 21.0636 54.851 21.0636V8.52044C52.8715 8.52044 51.3667 9.03032 50.3364 10.0501C49.3263 11.0698 48.8215 12.5383 48.8215 14.4555V15.1286ZM71.359 10.2031H74.8736V20.9107H74.9345L80.4487 10.2031H84.9935V25.4997H81.4789V14.792H81.4181L75.9039 25.4997H71.359V10.2031ZM94.2371 25.8056C92.015 25.8056 90.3788 25.3365 89.3284 24.3983C88.2986 23.4601 87.7128 22.0936 87.5713 20.2988H91.2676C91.4292 21.1758 91.7322 21.8285 92.1766 22.2568C92.621 22.6647 93.308 22.8686 94.2371 22.8686C95.2065 22.8686 95.8934 22.7055 96.2972 22.3792C96.7013 22.0324 96.9031 21.5735 96.9031 21.0025C96.9031 20.4518 96.7013 20.0133 96.2972 19.687C95.8934 19.3402 95.2065 19.1669 94.2371 19.1669H92.5706V16.2299H94.2371C95.0046 16.2299 95.5602 16.077 95.9035 15.771C96.2669 15.4651 96.4486 15.0572 96.4486 14.5473C96.4486 14.017 96.2669 13.5989 95.9035 13.293C95.5602 12.987 95.0046 12.8341 94.2371 12.8341C93.4897 12.8341 92.924 13.0176 92.5404 13.3848C92.1564 13.7519 91.8837 14.3229 91.7221 15.098H88.0258C88.1874 13.4255 88.7531 12.1406 89.7225 11.2432C90.6919 10.3458 92.1967 9.89714 94.2371 9.89714C96.277 9.89714 97.7718 10.3254 98.7211 11.182C99.6707 12.0182 100.145 13.1094 100.145 14.4555C100.145 15.8424 99.5092 16.8826 98.2364 17.576V17.6372C99.0039 17.9839 99.5897 18.453 99.9939 19.0445C100.398 19.6156 100.6 20.2886 100.6 21.0636C100.6 22.4709 100.095 23.6131 99.0849 24.4901C98.0949 25.3671 96.4793 25.8056 94.2371 25.8056ZM103.64 10.2031H108.852L112.063 18.5244H112.124L115.336 10.2031H120.305V25.4997H116.79V14.3331H116.73L113.73 22.1344H110.215L107.216 14.3331H107.155V25.4997H103.64V10.2031ZM124.234 10.2031H127.749V20.9107H127.809L133.324 10.2031H137.869V25.4997H134.354V14.792H134.293L128.779 25.4997H124.234V10.2031ZM141.81 10.2031H145.324V16.077H151.93V10.2031H155.444V25.4997H151.93V19.3198H145.324V25.4997H141.81V10.2031ZM163.718 25.4997L157.568 10.2031H161.385L165.536 21.0942H165.597L169.445 10.2031H173.02L164.991 31.6183H161.415L163.718 25.4997ZM178.657 13.4459H174.052V10.2031H186.777V13.4459H182.172V25.4997H178.657V13.4459ZM189.063 10.2031H192.578V15.924H194.093L197.849 10.2031H201.788L196.91 17.3619L202.394 25.4997H198.213L194.093 19.1669H192.578V25.4997H189.063V10.2031ZM208.454 25.8056C206.657 25.8056 205.323 25.3977 204.455 24.5819C203.586 23.766 203.152 22.6341 203.152 21.186C203.152 20.4314 203.273 19.7481 203.516 19.1363C203.758 18.5244 204.152 18.0043 204.697 17.576C205.242 17.1477 205.949 16.8214 206.818 16.597C207.686 16.3523 208.737 16.2299 209.969 16.2299H212.969V15.4039C212.969 14.6085 212.736 13.9966 212.272 13.5683C211.807 13.1196 211.09 12.8953 210.12 12.8953C209.151 12.8953 208.454 13.0788 208.03 13.4459C207.606 13.7926 207.353 14.2414 207.273 14.792H203.758C203.798 14.0986 203.96 13.4561 204.243 12.8647C204.525 12.2528 204.929 11.7327 205.455 11.3044C205.98 10.8557 206.626 10.509 207.394 10.2643C208.182 10.0195 209.091 9.89714 210.12 9.89714C212.282 9.89714 213.878 10.3968 214.908 11.3962C215.958 12.3956 216.483 13.8334 216.483 15.7098V25.4997H213.756L213.423 23.5111H213.363C212.777 24.2453 212.06 24.8164 211.212 25.2243C210.363 25.6118 209.444 25.8056 208.454 25.8056ZM209.06 22.8075C209.626 22.8075 210.141 22.7157 210.606 22.5321C211.09 22.3486 211.504 22.1038 211.848 21.7979C212.191 21.4715 212.464 21.0942 212.666 20.6659C212.868 20.2172 212.969 19.7379 212.969 19.2281V18.8609H210.12C208.908 18.8609 208.06 19.0649 207.576 19.4728C207.091 19.8603 206.848 20.3906 206.848 21.0636C206.848 21.5735 207.02 21.9916 207.363 22.318C207.727 22.6443 208.292 22.8075 209.06 22.8075Z" fill="white" />
  <path d="M25.3593 0.807129C28.5124 0.807129 31.3097 2.35852 33.0513 4.75332L17.7361 14.7763L16.1186 13.1188L12.873 9.79298C11.7681 8.66075 9.96481 8.64891 8.84544 9.76666C7.72608 10.8843 7.71443 12.7084 8.81941 13.8407L12.065 17.1665L15.3107 20.4923C16.2589 21.464 17.7512 21.6289 18.8845 20.8873L34.9189 10.3935C34.9195 10.439 34.9199 10.4846 34.9199 10.5302C34.9199 22.7057 23.7773 29.8894 18.7906 31.6114C18.206 31.8201 17.243 31.8201 16.6584 31.6114C11.6719 29.8894 0.529297 22.7057 0.529297 10.5302C0.529305 5.15555 4.8109 0.807129 10.0899 0.807129C13.2194 0.807129 15.9878 2.33775 17.7245 4.7033C19.4613 2.33776 22.2469 0.807129 25.3593 0.807129Z" fill="white" />
</svg>