<svg width="44" height="45" viewBox="0 0 44 45" fill="none" xmlns="http://www.w3.org/2000/svg">
<rect y="0.333252" width="43.996" height="43.996" rx="13.1988" fill="#5CC1B6"/>
<path d="M30.7976 23.4314C30.7976 28.9309 26.948 31.6807 22.3724 33.2756C22.1328 33.3567 21.8725 33.3529 21.6355 33.2646C17.0489 31.6807 13.1992 28.9309 13.1992 23.4314V15.7321C13.1992 15.4404 13.3151 15.1607 13.5214 14.9544C13.7276 14.7481 14.0074 14.6322 14.2991 14.6322C16.4989 14.6322 19.2487 13.3123 21.1625 11.6405C21.3955 11.4414 21.6919 11.332 21.9984 11.332C22.3049 11.332 22.6013 11.4414 22.8344 11.6405C24.7592 13.3233 27.4979 14.6322 29.6977 14.6322C29.9894 14.6322 30.2692 14.7481 30.4755 14.9544C30.6818 15.1607 30.7976 15.4404 30.7976 15.7321V23.4314Z" stroke="white" stroke-width="2.1998" stroke-linecap="round" stroke-linejoin="round"/>
</svg>
