<svg width="28" height="27" viewBox="0 0 28 27" fill="none" xmlns="http://www.w3.org/2000/svg">
<path d="M22.8627 11.4448C22.8627 16.9926 16.7083 22.7704 14.6416 24.5548C14.4491 24.6996 14.2147 24.7779 13.9738 24.7779C13.733 24.7779 13.4986 24.6996 13.3061 24.5548C11.2394 22.7704 5.08496 16.9926 5.08496 11.4448C5.08496 9.08732 6.02147 6.82639 7.68846 5.1594C9.35545 3.49241 11.6164 2.55591 13.9738 2.55591C16.3313 2.55591 18.5923 3.49241 20.2592 5.1594C21.9262 6.82639 22.8627 9.08732 22.8627 11.4448Z" stroke="white" stroke-width="2.22222" stroke-linecap="round" stroke-linejoin="round"/>
<path d="M13.9751 14.7797C15.8166 14.7797 17.3095 13.2868 17.3095 11.4453C17.3095 9.60371 15.8166 8.11084 13.9751 8.11084C12.1335 8.11084 10.6406 9.60371 10.6406 11.4453C10.6406 13.2868 12.1335 14.7797 13.9751 14.7797Z" stroke="white" stroke-width="2.22222" stroke-linecap="round" stroke-linejoin="round"/>
</svg>
