<svg width="50" height="50" viewBox="0 0 50 50" fill="none" xmlns="http://www.w3.org/2000/svg">
  <rect opacity="0.15" x="0.484863" y="0.823242" width="49.0596" height="49.0596" rx="8" fill="#539EE6" />
  <path opacity="0.3" d="M37.4565 43.1647L35.9698 44.6514C35.4224 45.1988 35.4224 46.0863 35.9698 46.6337L37.4565 48.1205C38.0039 48.6679 38.8914 48.6679 39.4388 48.1205L40.9256 46.6337C41.473 46.0863 41.473 45.1988 40.9256 44.6514L39.4388 43.1647C38.8914 42.6173 38.0039 42.6173 37.4565 43.1647Z" fill="#539EE6" />
  <path opacity="0.3" d="M13.3161 5.72251L12.3249 6.71367C11.9144 7.12422 11.9144 7.78985 12.3249 8.2004L13.3161 9.19155C13.7266 9.6021 14.3922 9.6021 14.8028 9.19155L15.7939 8.2004C16.2045 7.78985 16.2045 7.12422 15.7939 6.71367L14.8028 5.72251C14.3922 5.31196 13.7266 5.31196 13.3161 5.72251Z" fill="#539EE6" />
  <path d="M20.9848 39.4871H29.0446C35.7611 39.4871 38.4477 36.8005 38.4477 30.084V22.0242C38.4477 15.3077 35.7611 12.6211 29.0446 12.6211H20.9848C14.2683 12.6211 11.5817 15.3077 11.5817 22.0242V30.084C11.5817 36.8005 14.2683 39.4871 20.9848 39.4871Z" stroke="#539EE6" stroke-width="2" stroke-linecap="round" stroke-linejoin="round" />
  <path d="M29.7162 23.0319C30.8291 23.0319 31.7312 22.1297 31.7312 21.0169C31.7312 19.9041 30.8291 19.002 29.7162 19.002C28.6034 19.002 27.7013 19.9041 27.7013 21.0169C27.7013 22.1297 28.6034 23.0319 29.7162 23.0319Z" stroke="#539EE6" stroke-width="2" stroke-miterlimit="10" stroke-linecap="round" stroke-linejoin="round" />
  <path d="M20.313 23.0319C21.4259 23.0319 22.328 22.1297 22.328 21.0169C22.328 19.9041 21.4259 19.002 20.313 19.002C19.2002 19.002 18.2981 19.9041 18.2981 21.0169C18.2981 22.1297 19.2002 23.0319 20.313 23.0319Z" stroke="#539EE6" stroke-width="2" stroke-miterlimit="10" stroke-linecap="round" stroke-linejoin="round" />
  <path d="M20.1787 27.7998H29.8505C30.5221 27.7998 31.0594 28.3371 31.0594 29.0088C31.0594 32.3536 28.3594 35.0536 25.0146 35.0536C21.6698 35.0536 18.9697 32.3536 18.9697 29.0088C18.9697 28.3371 19.507 27.7998 20.1787 27.7998Z" stroke="#539EE6" stroke-width="2" stroke-miterlimit="10" stroke-linecap="round" stroke-linejoin="round" />
</svg>