<svg xmlns="http://www.w3.org/2000/svg">

<symbol id="logo" viewBox="0 0 216 31">
  <path d="M54.3544 23.6218C52.7988 23.6218 51.4051 23.4076 50.173 22.9793C48.9611 22.5306 47.9308 21.8983 47.0827 21.0825C46.2543 20.2667 45.6181 19.2877 45.1737 18.1456C44.7293 17.0034 44.5073 15.7287 44.5073 14.3214V13.6484C44.5073 12.2615 44.7293 10.997 45.1737 9.85484C45.6181 8.71268 46.2644 7.7337 47.1129 6.91789C47.9615 6.10205 48.9913 5.4698 50.2033 5.02111C51.4354 4.57239 52.8194 4.34806 54.3544 4.34806V3.00195H57.9903V4.34806C59.5455 4.34806 60.9291 4.57239 62.1411 5.02111C63.3732 5.44942 64.4034 6.07145 65.2318 6.8873C66.0799 7.7031 66.7262 8.68208 67.1706 9.82424C67.615 10.9664 67.8374 12.2411 67.8374 13.6484V14.3214C67.8374 15.7083 67.615 16.9728 67.1706 18.115C66.7262 19.2571 66.0799 20.2361 65.2318 21.0519C64.3833 21.8677 63.343 22.5 62.1109 22.9487C60.8989 23.3974 59.5254 23.6218 57.9903 23.6218V24.9679H54.3544V23.6218ZM64.0198 13.6484C64.0198 11.7516 63.5045 10.2933 62.4743 9.27357C61.4444 8.2334 59.9497 7.71331 57.9903 7.71331V20.2565C59.9698 20.2565 61.4646 19.7466 62.4743 18.7269C63.5045 17.7071 64.0198 16.2386 64.0198 14.3214V13.6484ZM48.3249 14.3214C48.3249 16.2182 48.8398 17.6867 49.8701 18.7269C50.9003 19.7466 52.3951 20.2565 54.3544 20.2565V7.71331C52.3749 7.71331 50.8701 8.22319 49.8398 9.24297C48.8297 10.2627 48.3249 11.7312 48.3249 13.6484V14.3214ZM70.8625 9.39594H74.377V20.1035H74.4379L79.9521 9.39594H84.4969V24.6925H80.9823V13.9849H80.9215L75.4073 24.6925H70.8625V9.39594ZM93.7405 24.9985C91.5184 24.9985 89.8822 24.5294 88.8318 23.5912C87.802 22.653 87.2162 21.2865 87.0747 19.4917H90.771C90.9326 20.3687 91.2356 21.0213 91.68 21.4497C92.1244 21.8575 92.8114 22.0615 93.7405 22.0615C94.7099 22.0615 95.3969 21.8983 95.8006 21.572C96.2047 21.2253 96.4065 20.7664 96.4065 20.1953C96.4065 19.6447 96.2047 19.2061 95.8006 18.8798C95.3969 18.5331 94.7099 18.3597 93.7405 18.3597H92.0741V15.4228H93.7405C94.508 15.4228 95.0636 15.2698 95.4069 14.9639C95.7704 14.658 95.9521 14.25 95.9521 13.7402C95.9521 13.2099 95.7704 12.7918 95.4069 12.4859C95.0636 12.1799 94.508 12.027 93.7405 12.027C92.9931 12.027 92.4274 12.2105 92.0438 12.5776C91.6599 12.9447 91.3871 13.5158 91.2255 14.2908H87.5292C87.6908 12.6184 88.2565 11.3335 89.2259 10.4361C90.1953 9.53869 91.7002 9.09001 93.7405 9.09001C95.7804 9.09001 97.2752 9.51831 98.2245 10.3749C99.1741 11.2111 99.6488 12.3023 99.6488 13.6484C99.6488 15.0353 99.0126 16.0754 97.7398 16.7689V16.8301C98.5073 17.1768 99.0932 17.6459 99.4973 18.2374C99.9014 18.8084 100.103 19.4815 100.103 20.2565C100.103 21.6638 99.5984 22.8059 98.5883 23.683C97.5984 24.5599 95.9827 24.9985 93.7405 24.9985ZM103.144 9.39594H108.355L111.567 17.7173H111.627L114.839 9.39594H119.808V24.6925H116.293V13.526H116.233L113.233 21.3273H109.719L106.719 13.526H106.659V24.6925H103.144V9.39594ZM123.738 9.39594H127.252V20.1035H127.313L132.827 9.39594H137.372V24.6925H133.857V13.9849H133.797L128.282 24.6925H123.738V9.39594ZM141.313 9.39594H144.828V15.2698H151.433V9.39594H154.948V24.6925H151.433V18.5127H144.828V24.6925H141.313V9.39594ZM163.221 24.6925L157.071 9.39594H160.889L165.039 20.2871H165.1L168.948 9.39594H172.523L164.494 30.8112H160.919L163.221 24.6925ZM178.161 12.6388H173.555V9.39594H186.281V12.6388H181.676V24.6925H178.161V12.6388ZM188.566 9.39594H192.081V15.1169H193.596L197.353 9.39594H201.292L196.414 16.5547L201.898 24.6925H197.717L193.596 18.3597H192.081V24.6925H188.566V9.39594ZM207.957 24.9985C206.16 24.9985 204.827 24.5905 203.958 23.7747C203.089 22.9589 202.655 21.8269 202.655 20.3789C202.655 19.6242 202.776 18.941 203.019 18.3291C203.261 17.7173 203.655 17.1972 204.201 16.7689C204.746 16.3406 205.453 16.0142 206.322 15.7899C207.19 15.5452 208.24 15.4228 209.472 15.4228H212.472V14.5968C212.472 13.8014 212.24 13.1895 211.775 12.7612C211.311 12.3125 210.594 12.0881 209.624 12.0881C208.654 12.0881 207.957 12.2717 207.534 12.6388C207.109 12.9855 206.857 13.4342 206.776 13.9849H203.261C203.302 13.2914 203.463 12.649 203.746 12.0575C204.029 11.4457 204.433 10.9256 204.958 10.4973C205.483 10.0486 206.129 9.70187 206.897 9.45713C207.685 9.21238 208.594 9.09001 209.624 9.09001C211.785 9.09001 213.381 9.58967 214.411 10.5891C215.462 11.5884 215.987 13.0263 215.987 14.9027V24.6925H213.26L212.926 22.704H212.866C212.28 23.4382 211.563 24.0093 210.715 24.4172C209.866 24.8047 208.947 24.9985 207.957 24.9985ZM208.563 22.0003C209.129 22.0003 209.644 21.9085 210.109 21.725C210.594 21.5414 211.008 21.2967 211.351 20.9908C211.694 20.6644 211.967 20.2871 212.169 19.8588C212.371 19.4101 212.472 18.9308 212.472 18.4209V18.0538H209.624C208.412 18.0538 207.564 18.2577 207.079 18.6657C206.594 19.0532 206.352 19.5835 206.352 20.2565C206.352 20.7664 206.523 21.1845 206.867 21.5108C207.231 21.8372 207.796 22.0003 208.563 22.0003Z" fill="#539EE6"/>
  <path d="M24.8637 0C28.0168 2.78043e-07 30.8141 1.55139 32.5557 3.94619L17.2405 13.9692L15.623 12.3116L12.3774 8.98585C11.2725 7.85362 9.4692 7.84178 8.34984 8.95953C7.23047 10.0772 7.21883 11.9013 8.32381 13.0336L11.5694 16.3594L14.815 19.6852C15.7633 20.6569 17.2556 20.8218 18.3889 20.0801L34.4233 9.58636C34.4239 9.63185 34.4243 9.67745 34.4243 9.7231C34.4243 21.8986 23.2817 29.0823 18.295 30.8042C17.7104 31.013 16.7474 31.013 16.1628 30.8042C11.1762 29.0823 0.0336914 21.8986 0.0336914 9.7231C0.0336993 4.34842 4.3153 1.07979e-07 9.59426 0C12.7238 0 15.4922 1.53062 17.2289 3.89618C18.9657 1.53064 21.7513 0 24.8637 0Z" fill="#539EE6"/>
</symbol>

</svg>
