<svg width="22" height="22" viewBox="0 0 22 22" fill="none" xmlns="http://www.w3.org/2000/svg">
  <path d="M14.5171 18.6677V16.8895C14.5171 15.9463 14.1424 15.0417 13.4754 14.3747C12.8084 13.7077 11.9038 13.333 10.9606 13.333H5.62583C4.68259 13.333 3.77798 13.7077 3.11101 14.3747C2.44404 15.0417 2.06934 15.9463 2.06934 16.8895V18.6677" stroke="#6B7280" stroke-width="1.77778" stroke-linecap="round" stroke-linejoin="round" />
  <path d="M8.2911 9.78043C10.2554 9.78043 11.8478 8.18803 11.8478 6.22371C11.8478 4.25939 10.2554 2.66699 8.2911 2.66699C6.32677 2.66699 4.73438 4.25939 4.73438 6.22371C4.73438 8.18803 6.32677 9.78043 8.2911 9.78043Z" stroke="#6B7280" stroke-width="1.77778" stroke-linecap="round" stroke-linejoin="round" />
  <path d="M19.8482 18.6687V16.8903C19.8476 16.1023 19.5853 15.3367 19.1025 14.7139C18.6197 14.0911 17.9437 13.6462 17.1807 13.4492" stroke="#6B7280" stroke-width="1.77778" stroke-linecap="round" stroke-linejoin="round" />
  <path d="M14.5146 2.7832C15.2797 2.97909 15.9578 3.42404 16.4421 4.04789C16.9263 4.67175 17.1892 5.43903 17.1892 6.22878C17.1892 7.01852 16.9263 7.7858 16.4421 8.40966C15.9578 9.03351 15.2797 9.47846 14.5146 9.67435" stroke="#6B7280" stroke-width="1.77778" stroke-linecap="round" stroke-linejoin="round" />
</svg>