<svg width="50" height="50" viewBox="0 0 50 50" fill="none" xmlns="http://www.w3.org/2000/svg">
<rect opacity="0.15" x="0.619141" y="0.795898" width="49.0596" height="49.0596" rx="8" fill="#539EE6"/>
<path opacity="0.3" d="M39.5414 7.42934L38.0546 8.91607C37.5072 9.46347 37.5072 10.351 38.0546 10.8984L39.5414 12.3851C40.0888 12.9325 40.9763 12.9325 41.5237 12.3851L43.0104 10.8984C43.5578 10.351 43.5578 9.46347 43.0104 8.91607L41.5237 7.42934C40.9763 6.88195 40.0888 6.88195 39.5414 7.42934Z" fill="#539EE6"/>
<path opacity="0.3" d="M7.96035 40.412L6.96919 41.4031C6.55865 41.8137 6.55865 42.4793 6.96919 42.8898L7.96035 43.881C8.3709 44.2916 9.03653 44.2916 9.44708 43.881L10.4382 42.8898C10.8488 42.4793 10.8488 41.8137 10.4382 41.4031L9.44708 40.412C9.03653 40.0014 8.3709 40.0014 7.96035 40.412Z" fill="#539EE6"/>
<path d="M26.901 16.2146C28.2557 16.2146 29.354 15.1163 29.354 13.7616C29.354 12.4068 28.2557 11.3086 26.901 11.3086C25.5462 11.3086 24.448 12.4068 24.448 13.7616C24.448 15.1163 25.5462 16.2146 26.901 16.2146Z" fill="#539EE6"/>
<path d="M33.3786 23.6886L30.0293 22.6022C30.0293 22.6022 28.1758 18.3848 28.1107 18.257C27.6555 17.4582 26.81 16.915 25.8345 16.915C25.4443 16.915 25.0541 17.0109 24.7289 17.1706L20.1765 18.9279C19.8513 19.0557 19.5911 19.3113 19.4611 19.6308L17.8352 23.4649C17.575 24.1039 17.8677 24.8707 18.5506 25.1263C18.7132 25.1902 18.8757 25.2222 19.0383 25.2222C19.5586 25.2222 20.0464 24.9346 20.2415 24.4234L21.5747 21.1006L22.9404 20.5894L20.6967 31.3567L16.3394 36.5646C15.8841 37.1078 15.9492 37.9066 16.502 38.3539C16.7296 38.5456 17.0222 38.6414 17.3149 38.6414C17.7051 38.6414 18.0628 38.4817 18.3229 38.1622L22.8754 32.7306C23.0055 32.5708 23.103 32.3791 23.1356 32.1874L23.916 28.4811L27.4279 30.9733V37.3634C27.4279 38.0663 28.0132 38.6414 28.7286 38.6414C29.444 38.6414 30.0293 38.0663 30.0293 37.3634V30.3343C30.0293 29.9189 29.8342 29.5355 29.509 29.3119L26.3548 27.0434L27.2328 22.73L27.8506 24.1359C28.0132 24.4554 28.2733 24.711 28.631 24.8388L32.5331 26.1168C32.6632 26.1488 32.7933 26.1807 32.9559 26.1807C33.5087 26.1807 33.9964 25.8292 34.1915 25.318C34.4192 24.6471 34.0615 23.9122 33.3786 23.6886Z" fill="#539EE6"/>
</svg>
