<svg width="19" height="18" viewBox="0 0 19 18" fill="none" id="whatsapp" xmlns="http://www.w3.org/2000/svg">
<path d="M11.8462 13.1857C8.30384 13.1857 5.42187 10.3019 5.4209 6.7585C5.42187 5.86029 6.15303 5.12988 7.04904 5.12988C7.14116 5.12988 7.23231 5.13764 7.31958 5.15316C7.51158 5.18517 7.6939 5.25016 7.86166 5.34813C7.8859 5.36268 7.90238 5.38596 7.90626 5.41312L8.28057 7.77312C8.28541 7.80124 8.27669 7.8284 8.25826 7.84877C8.05172 8.07769 7.78796 8.24259 7.49413 8.32504L7.35256 8.36481L7.40589 8.50158C7.8888 9.73153 8.87209 10.7141 10.1027 11.1991L10.2394 11.2535L10.2791 11.1118C10.3616 10.8179 10.5264 10.5541 10.7553 10.3475C10.7717 10.332 10.7941 10.3242 10.8164 10.3242C10.8212 10.3242 10.8261 10.3242 10.8319 10.3252L13.1912 10.6996C13.2193 10.7044 13.2426 10.72 13.2571 10.7442C13.3541 10.912 13.4191 11.0953 13.452 11.2874C13.4675 11.3728 13.4743 11.463 13.4743 11.5571C13.4743 12.4543 12.7441 13.1847 11.8462 13.1857Z" fill="#14181F"/>
<path d="M18.1282 8.35831C17.9371 6.1991 16.948 4.19607 15.3432 2.71877C13.7286 1.23274 11.634 0.414062 9.44346 0.414062C4.63565 0.414062 0.723856 4.32702 0.723856 9.13624C0.723856 10.7503 1.16894 12.3227 2.01162 13.6923L0.132324 17.8536L6.14937 17.2124C7.19568 17.6411 8.30308 17.8584 9.44249 17.8584C9.74213 17.8584 10.0495 17.8429 10.3579 17.8109C10.6294 17.7818 10.9039 17.7391 11.1734 17.6848C15.1997 16.871 18.1388 13.2965 18.1621 9.1828V9.13624C18.1621 8.87435 18.1505 8.61245 18.1272 8.35831H18.1282ZM6.38113 15.3859L3.05213 15.7409L4.04608 13.5381L3.84728 13.2713C3.83274 13.2519 3.81819 13.2325 3.80171 13.2102C2.93867 12.0181 2.4829 10.6097 2.4829 9.13721C2.4829 5.29798 5.60536 2.1746 9.44346 2.1746C13.0391 2.1746 16.0869 4.98079 16.3808 8.56298C16.3963 8.75504 16.405 8.94806 16.405 9.13818C16.405 9.1925 16.404 9.24585 16.4031 9.30308C16.3294 12.5147 14.0864 15.2424 10.9485 15.9369C10.7089 15.9902 10.4636 16.031 10.2192 16.0571C9.96517 16.0862 9.70432 16.1008 9.4454 16.1008C8.52321 16.1008 7.6272 15.9223 6.78065 15.5692C6.68659 15.5314 6.59446 15.4907 6.50815 15.449L6.3821 15.3879L6.38113 15.3859Z" fill="#14181F"/>
</svg>