<svg width="17" height="16" viewBox="0 0 17 16" fill="none" xmlns="http://www.w3.org/2000/svg">
<path d="M12.6434 1.33301H4.6413C3.90473 1.33301 3.30762 1.93012 3.30762 2.66669V13.3362C3.30762 14.0727 3.90473 14.6698 4.6413 14.6698H12.6434C13.38 14.6698 13.9771 14.0727 13.9771 13.3362V2.66669C13.9771 1.93012 13.38 1.33301 12.6434 1.33301Z" stroke="#F16F73" stroke-width="1.33333" stroke-linecap="round" stroke-linejoin="round"/>
<path d="M6.63965 14.6671V11.999H10.6417V14.6671" stroke="#F16F73" stroke-width="1.33333" stroke-linecap="round" stroke-linejoin="round"/>
<path d="M5.97363 4H5.97994" stroke="#F16F73" stroke-width="1.33333" stroke-linecap="round" stroke-linejoin="round"/>
<path d="M11.3066 4H11.3129" stroke="#F16F73" stroke-width="1.33333" stroke-linecap="round" stroke-linejoin="round"/>
<path d="M8.63965 4H8.64595" stroke="#F16F73" stroke-width="1.33333" stroke-linecap="round" stroke-linejoin="round"/>
<path d="M8.63965 6.66797H8.64595" stroke="#F16F73" stroke-width="1.33333" stroke-linecap="round" stroke-linejoin="round"/>
<path d="M8.63965 9.33203H8.64595" stroke="#F16F73" stroke-width="1.33333" stroke-linecap="round" stroke-linejoin="round"/>
<path d="M11.3066 6.66797H11.3129" stroke="#F16F73" stroke-width="1.33333" stroke-linecap="round" stroke-linejoin="round"/>
<path d="M11.3066 9.33203H11.3129" stroke="#F16F73" stroke-width="1.33333" stroke-linecap="round" stroke-linejoin="round"/>
<path d="M5.97363 6.66797H5.97994" stroke="#F16F73" stroke-width="1.33333" stroke-linecap="round" stroke-linejoin="round"/>
<path d="M5.97363 9.33203H5.97994" stroke="#F16F73" stroke-width="1.33333" stroke-linecap="round" stroke-linejoin="round"/>
</svg>
