<svg width="30" height="18" viewBox="0 0 30 18" fill="none" xmlns="http://www.w3.org/2000/svg">
<path d="M1.44835 7.81018C0.798678 7.81018 0.271973 8.33688 0.271973 8.98656C0.271973 9.63624 0.798678 10.1629 1.44835 10.1629V7.81018ZM28.9448 9.81834C29.4042 9.35892 29.4042 8.6142 28.9448 8.15478L21.4584 0.668292C20.999 0.208877 20.2541 0.208877 19.7947 0.668292C19.3353 1.12771 19.3353 1.87259 19.7947 2.33201L26.4493 8.98656L19.7947 15.6411C19.3353 16.1005 19.3353 16.8454 19.7947 17.3048C20.2541 17.7642 20.999 17.7642 21.4584 17.3048L28.9448 9.81834ZM1.44835 10.1629H28.113V7.81018H1.44835V10.1629Z" fill="#0077C8"/>
</svg>
