<svg width="19" height="16" viewBox="0 0 19 16" fill="none" xmlns="http://www.w3.org/2000/svg">
							<path
								d="M1.78373 7.04004C1.25354 7.04004 0.82373 7.4698 0.82373 8.00004C0.82373 8.53028 1.25354 8.96004 1.78373 8.96004V7.04004ZM18.4626 8.67892C18.8375 8.30404 18.8375 7.6962 18.4626 7.32116L12.3532 1.21184C11.9783 0.83694 11.3705 0.83694 10.9956 1.21184C10.6205 1.58673 10.6205 2.19457 10.9956 2.56948L16.4261 8.00004L10.9956 13.4306C10.6205 13.8055 10.6205 14.4133 10.9956 14.7882C11.3705 15.1632 11.9783 15.1632 12.3532 14.7882L18.4626 8.67892ZM1.78373 8.96004H17.7837V7.04004H1.78373V8.96004Z"
								fill="white" />
						</svg>