<svg width="393" height="185" viewBox="0 0 393 185" fill="none" xmlns="http://www.w3.org/2000/svg">
<path d="M375.234 184.573C384.899 184.573 392.734 176.738 392.734 167.073V38.1655C392.734 28.5005 384.899 20.6655 375.234 20.6655H179.227C182.92 12.0486 183.152 4.01755 183.098 1.15381C183.089 0.721191 182.576 0.543854 182.269 0.852051C180.921 2.20488 177.985 5.02242 174.645 7.43799C170.549 10.3999 164.811 13.6708 158.996 15.4175C151.234 17.7491 130.473 19.6084 116.164 20.6655H17.5938C7.92877 20.6655 0.09375 28.5005 0.09375 38.1655V167.073C0.09375 176.738 7.92877 184.573 17.5938 184.573H375.234Z" fill="#1F2329"/>
</svg>
