<svg width="32" height="32" viewBox="0 0 32 32" fill="none" xmlns="http://www.w3.org/2000/svg">
<g clip-path="url(#clip0_9372_1746)">
<path d="M5.02344 31.0547H26.9414C29.4454 31.0547 31.4824 29.0176 31.4824 26.5137V4.5957C31.4824 2.09176 29.4454 0.0546875 26.9414 0.0546875H5.02344C2.51949 0.0546875 0.482422 2.09176 0.482422 4.5957V26.5137C0.482422 29.0176 2.51949 31.0547 5.02344 31.0547ZM2.29883 4.5957C2.29883 3.09338 3.52112 1.87109 5.02344 1.87109H26.9414C28.4437 1.87109 29.666 3.09338 29.666 4.5957V26.5137C29.666 28.016 28.4437 29.2383 26.9414 29.2383H5.02344C3.52112 29.2383 2.29883 28.016 2.29883 26.5137V4.5957Z" fill="white"/>
<path d="M15.9824 23.7285C20.4894 23.7285 24.1562 20.0616 24.1562 15.5547C24.1562 11.0477 20.4894 7.38086 15.9824 7.38086C11.4755 7.38086 7.80859 11.0477 7.80859 15.5547C7.80859 20.0616 11.4755 23.7285 15.9824 23.7285ZM15.9824 9.19727C19.488 9.19727 22.3398 12.0491 22.3398 15.5547C22.3398 19.0603 19.488 21.9121 15.9824 21.9121C12.4769 21.9121 9.625 19.0603 9.625 15.5547C9.625 12.0491 12.4769 9.19727 15.9824 9.19727Z" fill="white"/>
<path d="M25.0645 9.19727C26.5668 9.19727 27.7891 7.97498 27.7891 6.47266C27.7891 4.97034 26.5668 3.74805 25.0645 3.74805C23.5621 3.74805 22.3398 4.97034 22.3398 6.47266C22.3398 7.97498 23.5621 9.19727 25.0645 9.19727ZM25.0645 5.56445C25.5651 5.56445 25.9727 5.97196 25.9727 6.47266C25.9727 6.97335 25.5651 7.38086 25.0645 7.38086C24.5638 7.38086 24.1562 6.97335 24.1562 6.47266C24.1562 5.97196 24.5638 5.56445 25.0645 5.56445Z" fill="white"/>
</g>
<defs>
<clipPath id="clip0_9372_1746">
<rect width="31" height="31" fill="white" transform="translate(0.482422 0.0546875)"/>
</clipPath>
</defs>
</svg>
