<svg width="371" height="331" viewBox="0 0 371 331" fill="none" xmlns="http://www.w3.org/2000/svg">
  <g opacity="0.3">
    <path d="M267.874 0.766846C324.494 0.766846 370.424 46.9581 370.424 104.059C370.424 168.878 340.478 220.424 303.797 258.074C267.11 295.731 223.715 319.457 196.912 328.623L196.907 328.624C193.827 329.713 189.716 330.267 185.582 330.267C181.448 330.267 177.338 329.713 174.258 328.624L174.253 328.623L172.984 328.183C146.096 318.712 103.483 295.143 67.3691 258.074C30.6881 220.424 0.742188 168.878 0.742188 104.059C0.742359 46.9581 46.6717 0.766846 103.292 0.766846C136.858 0.766952 166.551 17.0248 185.181 42.1555L185.582 42.6975L185.984 42.1555C204.614 17.0252 234.493 0.766846 267.874 0.766846Z" fill="#539EE6" stroke="#DADCDF" />
    <path d="M351.068 43.6578C363.147 60.2273 370.06 80.9255 370.417 102.986L198.162 214.306C186.17 222.055 170.378 220.332 160.345 210.179L125.432 174.852L90.5176 139.524C78.8253 127.693 78.9483 108.634 90.793 96.9556C102.638 85.2761 121.719 85.4004 133.411 97.231L168.325 132.558L185.726 150.165L186.012 150.455L186.353 150.233L351.068 43.6578Z" fill="white" stroke="#DADCDF" />
  </g>
</svg>