<svg width="59" height="59" viewBox="0 0 59 59" fill="none" xmlns="http://www.w3.org/2000/svg">
<g clip-path="url(#clip0_2176_4102)">
<path fill-rule="evenodd" clip-rule="evenodd" d="M3.76318 6.53575C3.76318 5.53414 4.57515 4.72217 5.57677 4.72217H53.9391C54.9408 4.72217 55.7526 5.53414 55.7526 6.53575V37.9712C55.7526 38.9729 54.9408 39.7849 53.9391 39.7849H5.57677C4.57515 39.7849 3.76318 38.9729 3.76318 37.9712V6.53575ZM7.39036 8.34934V36.1577H52.1255V8.34934H7.39036Z" fill="#00FFBF"/>
<path fill-rule="evenodd" clip-rule="evenodd" d="M26.484 15.8184C27.0736 15.5028 27.7892 15.5374 28.3457 15.9084L35.6 20.7445C36.1046 21.081 36.4076 21.6472 36.4076 22.2536C36.4076 22.86 36.1046 23.4262 35.6 23.7625L28.3457 28.5988C27.7892 28.9698 27.0736 29.0045 26.484 28.6889C25.8943 28.3731 25.5261 27.7586 25.5261 27.0898V17.4173C25.5261 16.7485 25.8943 16.134 26.484 15.8184ZM29.1533 20.806V23.701L31.3246 22.2536L29.1533 20.806Z" fill="#00FFBF"/>
<path fill-rule="evenodd" clip-rule="evenodd" d="M6.18115 48.8527C6.18115 47.8511 6.99312 47.0391 7.99474 47.0391H14.04C15.0417 47.0391 15.8536 47.8511 15.8536 48.8527C15.8536 49.8542 15.0417 50.6662 14.04 50.6662H7.99474C6.99312 50.6662 6.18115 49.8542 6.18115 48.8527Z" fill="#00FFBF"/>
<path fill-rule="evenodd" clip-rule="evenodd" d="M19.481 48.8527C19.481 47.8511 20.293 47.0391 21.2945 47.0391H51.521C52.5227 47.0391 53.3345 47.8511 53.3345 48.8527C53.3345 49.8542 52.5227 50.6662 51.521 50.6662H21.2945C20.293 50.6662 19.481 49.8542 19.481 48.8527Z" fill="#00FFBF"/>
<path fill-rule="evenodd" clip-rule="evenodd" d="M17.6675 47.0392C16.6658 47.0392 15.854 47.851 15.854 48.8528C15.854 49.8545 16.6658 50.6663 17.6675 50.6663C18.6693 50.6663 19.4812 49.8545 19.4812 48.8528C19.4812 47.851 18.6693 47.0392 17.6675 47.0392ZM12.2268 48.8528C12.2268 45.8479 14.6627 43.412 17.6675 43.412C20.6724 43.412 23.1083 45.8479 23.1083 48.8528C23.1083 51.8576 20.6724 54.2935 17.6675 54.2935C14.6627 54.2935 12.2268 51.8576 12.2268 48.8528Z" fill="#00FFBF"/>
</g>
<defs>
<clipPath id="clip0_2176_4102">
<rect width="58.0348" height="58.0348" fill="white" transform="translate(0.740234 0.490601)"/>
</clipPath>
</defs>
</svg>
