<svg width="59" height="59" viewBox="0 0 59 59" fill="none" xmlns="http://www.w3.org/2000/svg">
<g clip-path="url(#clip0_2176_4089)">
<g clip-path="url(#clip1_2176_4089)">
<path fill-rule="evenodd" clip-rule="evenodd" d="M17.6675 31.6552C15.3304 31.6552 13.4358 33.5498 13.4358 35.887C13.4358 38.2241 15.3304 40.1187 17.6675 40.1187C20.0046 40.1187 21.8992 38.2241 21.8992 35.887C21.8992 33.5498 20.0046 31.6552 17.6675 31.6552ZM9.80859 35.887C9.80859 31.5467 13.3271 28.0282 17.6675 28.0282C22.0077 28.0282 25.5264 31.5467 25.5264 35.887C25.5264 40.2273 22.0077 43.7459 17.6675 43.7459C13.3271 43.7459 9.80859 40.2273 9.80859 35.887Z" fill="#00FFBF"/>
<path fill-rule="evenodd" clip-rule="evenodd" d="M41.8491 31.6552C39.512 31.6552 37.6174 33.5498 37.6174 35.887C37.6174 38.2241 39.512 40.1187 41.8491 40.1187C44.1862 40.1187 46.0808 38.2241 46.0808 35.887C46.0808 33.5498 44.1862 31.6552 41.8491 31.6552ZM33.9902 35.887C33.9902 31.5467 37.5087 28.0282 41.8491 28.0282C46.1895 28.0282 49.7079 31.5467 49.7079 35.887C49.7079 40.2273 46.1895 43.7459 41.8491 43.7459C37.5087 43.7459 33.9902 40.2273 33.9902 35.887Z" fill="#00FFBF"/>
<path fill-rule="evenodd" clip-rule="evenodd" d="M29.7573 7.47398C27.4202 7.47398 25.5256 9.36858 25.5256 11.7057C25.5256 14.0428 27.4202 15.9374 29.7573 15.9374C32.0944 15.9374 33.989 14.0428 33.989 11.7057C33.989 9.36858 32.0944 7.47398 29.7573 7.47398ZM21.8984 11.7057C21.8984 7.36534 25.4169 3.8468 29.7573 3.8468C34.0977 3.8468 37.6161 7.36534 37.6161 11.7057C37.6161 16.046 34.0977 19.5645 29.7573 19.5645C25.4169 19.5645 21.8984 16.046 21.8984 11.7057Z" fill="#00FFBF"/>
<path fill-rule="evenodd" clip-rule="evenodd" d="M3.7627 54.0227C3.7627 46.3438 9.9878 40.1185 17.6669 40.1185C25.3458 40.1185 31.5711 46.3436 31.5711 54.0227C31.5711 55.0244 30.7591 55.8362 29.7574 55.8362C28.7558 55.8362 27.9439 55.0244 27.9439 54.0227C27.9439 48.3469 23.3427 43.7457 17.6669 43.7457C11.991 43.7457 7.38987 48.3469 7.38987 54.0227C7.38987 55.0244 6.5779 55.8362 5.57628 55.8362C4.57466 55.8362 3.7627 55.0244 3.7627 54.0227Z" fill="#00FFBF"/>
<path fill-rule="evenodd" clip-rule="evenodd" d="M27.9443 54.0227C27.9443 46.3436 34.1694 40.1185 41.8484 40.1185C49.5275 40.1185 55.7526 46.3436 55.7526 54.0227C55.7526 55.0244 54.9405 55.8362 53.9391 55.8362C52.9374 55.8362 52.1254 55.0244 52.1254 54.0227C52.1254 48.3469 47.5242 43.7457 41.8484 43.7457C36.1727 43.7457 31.5714 48.3469 31.5714 54.0227C31.5714 55.0244 30.7595 55.8362 29.7578 55.8362C28.7562 55.8362 27.9443 55.0244 27.9443 54.0227Z" fill="#00FFBF"/>
<path fill-rule="evenodd" clip-rule="evenodd" d="M15.854 29.8418C15.854 22.1627 22.0791 15.9376 29.7582 15.9376C37.4371 15.9376 43.6624 22.1627 43.6624 29.8418C43.6624 30.8435 42.8504 31.6553 41.8487 31.6553C40.8471 31.6553 40.0352 30.8435 40.0352 29.8418C40.0352 24.166 35.434 19.5648 29.7582 19.5648C24.0824 19.5648 19.4812 24.166 19.4812 29.8418C19.4812 30.8435 18.6692 31.6553 17.6675 31.6553C16.666 31.6553 15.854 30.8435 15.854 29.8418Z" fill="#00FFBF"/>
</g>
</g>
<defs>
<clipPath id="clip0_2176_4089">
<rect width="58.0348" height="58.0348" fill="white" transform="translate(0.740234 0.824219)"/>
</clipPath>
<clipPath id="clip1_2176_4089">
<rect width="58.0348" height="58.0348" fill="white" transform="translate(0.740234 0.824219)"/>
</clipPath>
</defs>
</svg>
