<svg width="40" height="31" viewBox="0 0 40 31" fill="none" xmlns="http://www.w3.org/2000/svg">
<path d="M6.19531 30.4082H33.7695C36.9197 30.4082 39.4824 27.8454 39.4824 24.6953V6.41406C39.4824 3.26394 36.9197 0.701172 33.7695 0.701172H6.19531C3.04519 0.701172 0.482422 3.26394 0.482422 6.41406V24.6953C0.482422 27.8454 3.04519 30.4082 6.19531 30.4082ZM2.76758 6.41406C2.76758 4.52405 4.3053 2.98633 6.19531 2.98633H33.7695C35.6595 2.98633 37.1973 4.52405 37.1973 6.41406V24.6953C37.1973 26.5853 35.6595 28.123 33.7695 28.123H6.19531C4.3053 28.123 2.76758 26.5853 2.76758 24.6953V6.41406Z" fill="white"/>
<path d="M14.2695 7.8999V23.4312L28.0186 15.5382L14.2695 7.8999ZM16.5547 11.7835L23.3721 15.5709L16.5547 19.4846V11.7835Z" fill="white"/>
</svg>
